<svg width="19" height="20" viewBox="0 0 19 20" fill="none" xmlns="http://www.w3.org/2000/svg">
<g clip-path="url(#clip0_3973_25595)">
<path d="M3.14242 10.7674C3.03128 10.6562 2.96882 10.5053 2.96875 10.3481V3.46875H9.84809C10.0053 3.46882 10.1562 3.53128 10.2674 3.64242L17.6388 11.0138C17.7501 11.1252 17.8126 11.2761 17.8126 11.4335C17.8126 11.5909 17.7501 11.7419 17.6388 11.8532L11.3555 18.1388C11.2441 18.2501 11.0932 18.3126 10.9358 18.3126C10.7784 18.3126 10.6274 18.2501 10.5161 18.1388L3.14242 10.7674Z" stroke="white" stroke-width="1.4" stroke-linecap="round" stroke-linejoin="round"/>
<path d="M6.23438 7.625C6.72625 7.625 7.125 7.22625 7.125 6.73438C7.125 6.2425 6.72625 5.84375 6.23438 5.84375C5.7425 5.84375 5.34375 6.2425 5.34375 6.73438C5.34375 7.22625 5.7425 7.625 6.23438 7.625Z" fill="white"/>
</g>
<defs>
<clipPath id="clip0_3973_25595">
<rect width="19" height="19" fill="white" transform="translate(0 0.5)"/>
</clipPath>
</defs>
</svg>
