<svg width="19" height="20" viewBox="0 0 19 20" fill="none" xmlns="http://www.w3.org/2000/svg">
<g clip-path="url(#clip0_3973_25577)">
<path d="M16.6015 3.63077C16.6302 3.52921 16.6312 3.42185 16.6045 3.31975C16.5779 3.21765 16.5245 3.1245 16.4499 3.04988C16.3753 2.97527 16.2821 2.92188 16.18 2.89523C16.0779 2.86858 15.9706 2.86961 15.869 2.89823L1.619 7.21925C1.50266 7.25208 1.39912 7.31965 1.32221 7.41291C1.24529 7.50616 1.19868 7.62068 1.18859 7.74114C1.17851 7.8616 1.20543 7.98227 1.26577 8.08702C1.3261 8.19177 1.41697 8.27561 1.52623 8.32734L7.88084 11.3362C8.00456 11.3948 8.10419 11.4945 8.16287 11.6182L11.1724 17.9721C11.2242 18.0813 11.308 18.1722 11.4128 18.2325C11.5175 18.2929 11.6382 18.3198 11.7586 18.3097C11.8791 18.2996 11.9936 18.253 12.0869 18.1761C12.1801 18.0992 12.2477 17.9956 12.2805 17.8793L16.6015 3.63077Z" stroke="white" stroke-width="1.4" stroke-linecap="round" stroke-linejoin="round"/>
<path d="M8.04688 11.4532L11.8751 7.625" stroke="white" stroke-width="1.4" stroke-linecap="round" stroke-linejoin="round"/>
</g>
<defs>
<clipPath id="clip0_3973_25577">
<rect width="19" height="19" fill="white" transform="translate(0 0.5)"/>
</clipPath>
</defs>
</svg>
